<svg width="211" height="24" viewBox="0 0 211 24" fill="none" xmlns="http://www.w3.org/2000/svg">
<path d="M10.4066 5.34375C10.3271 4.59943 9.99183 4.01989 9.40092 3.60511C8.8157 3.19034 8.05433 2.98295 7.11683 2.98295C6.45774 2.98295 5.8924 3.08239 5.42081 3.28125C4.94922 3.48011 4.58842 3.75 4.33842 4.09091C4.08842 4.43182 3.96058 4.82102 3.9549 5.25852C3.9549 5.62216 4.03729 5.9375 4.20206 6.20455C4.37251 6.47159 4.60263 6.69886 4.8924 6.88636C5.18217 7.06818 5.5032 7.22159 5.85547 7.34659C6.20774 7.47159 6.56286 7.5767 6.92081 7.66193L8.55717 8.07102C9.21626 8.22443 9.84979 8.43182 10.4577 8.69318C11.0714 8.95455 11.6197 9.28409 12.1026 9.68182C12.5913 10.0795 12.9776 10.5597 13.2617 11.1222C13.5458 11.6847 13.6879 12.3437 13.6879 13.0994C13.6879 14.1222 13.4265 15.0227 12.9038 15.8011C12.381 16.5739 11.6254 17.179 10.6367 17.6165C9.65376 18.0483 8.46342 18.2642 7.0657 18.2642C5.70774 18.2642 4.52876 18.054 3.52876 17.6335C2.53445 17.2131 1.75604 16.5994 1.19354 15.7926C0.636719 14.9858 0.335582 14.0028 0.290128 12.8438H3.40092C3.44638 13.4517 3.63388 13.9574 3.96342 14.3608C4.29297 14.7642 4.72195 15.0653 5.25036 15.2642C5.78445 15.4631 6.38104 15.5625 7.04013 15.5625C7.72763 15.5625 8.3299 15.4602 8.84695 15.2557C9.36967 15.0455 9.77876 14.7557 10.0742 14.3864C10.3697 14.0114 10.5202 13.5739 10.5259 13.0739C10.5202 12.6193 10.3867 12.2443 10.1254 11.9489C9.86399 11.6477 9.49751 11.3977 9.02592 11.1989C8.56001 10.9943 8.01456 10.8125 7.38956 10.6534L5.40376 10.142C3.96626 9.77273 2.8299 9.21307 1.99467 8.46307C1.16513 7.70739 0.750355 6.70455 0.750355 5.45454C0.750355 4.42614 1.02876 3.52557 1.58558 2.75284C2.14808 1.98011 2.91229 1.38068 3.8782 0.954545C4.84411 0.522727 5.93786 0.306818 7.15945 0.306818C8.39808 0.306818 9.48331 0.522727 10.4151 0.954545C11.3526 1.38068 12.0884 1.97443 12.6225 2.73579C13.1566 3.49148 13.4322 4.3608 13.4492 5.34375H10.4066ZM19.4556 10.3295V18H16.3704V0.545454H19.3874V7.13352H19.5408C19.8477 6.39489 20.3221 5.8125 20.9641 5.38636C21.6119 4.95455 22.4357 4.73864 23.4357 4.73864C24.3448 4.73864 25.1374 4.92898 25.8136 5.30966C26.4897 5.69034 27.0124 6.24716 27.3817 6.98011C27.7567 7.71307 27.9442 8.60795 27.9442 9.66477V18H24.859V10.142C24.859 9.26136 24.6317 8.5767 24.1772 8.08807C23.7283 7.59375 23.0977 7.34659 22.2852 7.34659C21.7397 7.34659 21.2511 7.46591 20.8192 7.70455C20.3931 7.9375 20.0579 8.27557 19.8136 8.71875C19.5749 9.16193 19.4556 9.69886 19.4556 10.3295ZM34.8562 18.2642C34.0266 18.2642 33.2795 18.1165 32.6147 17.821C31.9556 17.5199 31.4329 17.0767 31.0465 16.4915C30.6658 15.9062 30.4755 15.1847 30.4755 14.3267C30.4755 13.5881 30.6119 12.9773 30.8846 12.4943C31.1573 12.0114 31.5295 11.625 32.0011 11.3352C32.4727 11.0455 33.0039 10.8267 33.5948 10.679C34.1914 10.5256 34.8079 10.4148 35.4442 10.3466C36.2113 10.267 36.8335 10.196 37.3107 10.1335C37.788 10.0653 38.1346 9.96307 38.3505 9.8267C38.5721 9.68466 38.6829 9.46591 38.6829 9.17045V9.11932C38.6829 8.47727 38.4925 7.98011 38.1119 7.62784C37.7312 7.27557 37.1829 7.09943 36.467 7.09943C35.7113 7.09943 35.1119 7.2642 34.6687 7.59375C34.2312 7.9233 33.9357 8.3125 33.7823 8.76136L30.9016 8.35227C31.1289 7.55682 31.5039 6.89205 32.0266 6.35795C32.5494 5.81818 33.1886 5.41477 33.9442 5.14773C34.6999 4.875 35.5352 4.73864 36.4499 4.73864C37.0806 4.73864 37.7085 4.8125 38.3335 4.96023C38.9585 5.10795 39.5295 5.35227 40.0465 5.69318C40.5636 6.02841 40.9783 6.4858 41.2908 7.06534C41.609 7.64489 41.7681 8.36932 41.7681 9.23864V18H38.8022V16.2017H38.6999C38.5124 16.5653 38.2482 16.9062 37.9073 17.2244C37.5721 17.5369 37.1488 17.7898 36.6374 17.983C36.1317 18.1705 35.538 18.2642 34.8562 18.2642ZM35.6573 15.9972C36.2766 15.9972 36.8136 15.875 37.2681 15.6307C37.7227 15.3807 38.0721 15.0511 38.3164 14.642C38.5664 14.233 38.6914 13.7869 38.6914 13.304V11.7614C38.5948 11.8409 38.43 11.9148 38.1971 11.983C37.9698 12.0511 37.7141 12.1108 37.43 12.1619C37.146 12.2131 36.8647 12.2585 36.5863 12.2983C36.3079 12.3381 36.0664 12.3722 35.8619 12.4006C35.4016 12.4631 34.9897 12.5653 34.6261 12.7074C34.2624 12.8494 33.9755 13.0483 33.7653 13.304C33.555 13.554 33.4499 13.8778 33.4499 14.2756C33.4499 14.8438 33.6573 15.2727 34.0721 15.5625C34.4869 15.8523 35.0153 15.9972 35.6573 15.9972ZM49.7283 18.2301C48.6999 18.2301 47.7795 17.9659 46.967 17.4375C46.1545 16.9091 45.5124 16.142 45.0408 15.1364C44.5692 14.1307 44.3335 12.9091 44.3335 11.4716C44.3335 10.017 44.5721 8.78977 45.0494 7.78977C45.5323 6.78409 46.1829 6.02557 47.0011 5.5142C47.8192 4.99716 48.7312 4.73864 49.7369 4.73864C50.5039 4.73864 51.1346 4.86932 51.6289 5.13068C52.1232 5.38636 52.5153 5.69602 52.805 6.05966C53.0948 6.41761 53.3192 6.75568 53.4783 7.07386H53.6062V0.545454H56.6999V18H53.6658V15.9375H53.4783C53.3192 16.2557 53.0891 16.5937 52.788 16.9517C52.4869 17.304 52.0891 17.6051 51.5948 17.8551C51.1005 18.1051 50.4783 18.2301 49.7283 18.2301ZM50.5891 15.6989C51.2425 15.6989 51.7994 15.5227 52.2596 15.1705C52.7198 14.8125 53.0692 14.3153 53.3079 13.679C53.5465 13.0426 53.6658 12.3011 53.6658 11.4545C53.6658 10.608 53.5465 9.87216 53.3079 9.24716C53.0749 8.62216 52.7283 8.13636 52.2681 7.78977C51.8136 7.44318 51.2539 7.26989 50.5891 7.26989C49.9016 7.26989 49.3278 7.44886 48.8675 7.80682C48.4073 8.16477 48.0607 8.65909 47.8278 9.28977C47.5948 9.92045 47.4783 10.642 47.4783 11.4545C47.4783 12.2727 47.5948 13.0028 47.8278 13.6449C48.0664 14.2812 48.4158 14.7841 48.8761 15.1534C49.342 15.517 49.913 15.6989 50.5891 15.6989ZM65.6978 18.2557C64.4194 18.2557 63.3114 17.9744 62.3739 17.4119C61.4364 16.8494 60.7092 16.0625 60.1921 15.0511C59.6808 14.0398 59.4251 12.858 59.4251 11.5057C59.4251 10.1534 59.6808 8.96875 60.1921 7.9517C60.7092 6.93466 61.4364 6.14489 62.3739 5.58239C63.3114 5.01989 64.4194 4.73864 65.6978 4.73864C66.9762 4.73864 68.0842 5.01989 69.0217 5.58239C69.9592 6.14489 70.6836 6.93466 71.195 7.9517C71.712 8.96875 71.9705 10.1534 71.9705 11.5057C71.9705 12.858 71.712 14.0398 71.195 15.0511C70.6836 16.0625 69.9592 16.8494 69.0217 17.4119C68.0842 17.9744 66.9762 18.2557 65.6978 18.2557ZM65.7148 15.7841C66.408 15.7841 66.9876 15.5937 67.4535 15.2131C67.9194 14.8267 68.266 14.3097 68.4933 13.6619C68.7262 13.0142 68.8427 12.2926 68.8427 11.4972C68.8427 10.696 68.7262 9.97159 68.4933 9.32386C68.266 8.67045 67.9194 8.15057 67.4535 7.7642C66.9876 7.37784 66.408 7.18466 65.7148 7.18466C65.0046 7.18466 64.4137 7.37784 63.9421 7.7642C63.4762 8.15057 63.1268 8.67045 62.8938 9.32386C62.6665 9.97159 62.5529 10.696 62.5529 11.4972C62.5529 12.2926 62.6665 13.0142 62.8938 13.6619C63.1268 14.3097 63.4762 14.8267 63.9421 15.2131C64.4137 15.5937 65.0046 15.7841 65.7148 15.7841ZM76.9158 18L73.217 4.90909H76.3619L78.663 14.1136H78.7823L81.1346 4.90909H84.2454L86.5977 14.0625H86.7255L88.9925 4.90909H92.146L88.4386 18H85.2255L82.771 9.15341H82.592L80.1374 18H76.9158ZM101.578 0.545454H104.101L110.033 15.0341H110.238L116.169 0.545454H118.692V18H116.715V4.73864H116.544L111.09 18H109.181L103.726 4.73864H103.556V18H101.578V0.545454ZM127.975 18.2727C126.794 18.2727 125.757 17.9915 124.865 17.429C123.978 16.8665 123.285 16.0795 122.785 15.0682C122.291 14.0568 122.044 12.875 122.044 11.5227C122.044 10.1591 122.291 8.96875 122.785 7.9517C123.285 6.93466 123.978 6.14489 124.865 5.58239C125.757 5.01989 126.794 4.73864 127.975 4.73864C129.157 4.73864 130.191 5.01989 131.078 5.58239C131.97 6.14489 132.663 6.93466 133.157 7.9517C133.657 8.96875 133.907 10.1591 133.907 11.5227C133.907 12.875 133.657 14.0568 133.157 15.0682C132.663 16.0795 131.97 16.8665 131.078 17.429C130.191 17.9915 129.157 18.2727 127.975 18.2727ZM127.975 16.4659C128.873 16.4659 129.612 16.2358 130.191 15.7756C130.771 15.3153 131.2 14.7102 131.478 13.9602C131.757 13.2102 131.896 12.3977 131.896 11.5227C131.896 10.6477 131.757 9.83239 131.478 9.0767C131.2 8.32102 130.771 7.71023 130.191 7.24432C129.612 6.77841 128.873 6.54545 127.975 6.54545C127.078 6.54545 126.339 6.77841 125.76 7.24432C125.18 7.71023 124.751 8.32102 124.473 9.0767C124.194 9.83239 124.055 10.6477 124.055 11.5227C124.055 12.3977 124.194 13.2102 124.473 13.9602C124.751 14.7102 125.18 15.3153 125.76 15.7756C126.339 16.2358 127.078 16.4659 127.975 16.4659ZM138.853 13.2273L138.819 10.7386H139.228L144.955 4.90909H147.444L141.341 11.0795H141.171L138.853 13.2273ZM136.978 18V0.545454H138.989V18H136.978ZM145.296 18L140.182 11.5227L141.614 10.125L147.853 18H145.296ZM154.777 23.1818C153.806 23.1818 152.971 23.0568 152.272 22.8068C151.573 22.5625 150.99 22.2386 150.525 21.8352C150.064 21.4375 149.698 21.0114 149.425 20.5568L151.027 19.4318C151.209 19.6705 151.439 19.9432 151.718 20.25C151.996 20.5625 152.377 20.8324 152.86 21.0597C153.348 21.2926 153.988 21.4091 154.777 21.4091C155.834 21.4091 156.706 21.1534 157.394 20.642C158.081 20.1307 158.425 19.3295 158.425 18.2386V15.5795H158.255C158.107 15.8182 157.897 16.1136 157.624 16.4659C157.357 16.8125 156.971 17.1222 156.465 17.3949C155.965 17.6619 155.289 17.7955 154.436 17.7955C153.38 17.7955 152.431 17.5455 151.59 17.0455C150.755 16.5455 150.093 15.8182 149.604 14.8636C149.121 13.9091 148.88 12.75 148.88 11.3864C148.88 10.0455 149.115 8.87784 149.587 7.88352C150.059 6.88352 150.715 6.1108 151.556 5.56534C152.397 5.0142 153.368 4.73864 154.471 4.73864C155.323 4.73864 155.999 4.88068 156.499 5.16477C157.005 5.44318 157.391 5.76136 157.658 6.11932C157.931 6.47159 158.141 6.76136 158.289 6.98864H158.493V4.90909H160.436V18.375C160.436 19.5 160.181 20.4148 159.669 21.1193C159.164 21.8295 158.482 22.3494 157.624 22.679C156.772 23.0142 155.823 23.1818 154.777 23.1818ZM154.709 15.9886C155.516 15.9886 156.198 15.804 156.755 15.4347C157.311 15.0653 157.735 14.5341 158.025 13.8409C158.314 13.1477 158.459 12.3182 158.459 11.3523C158.459 10.4091 158.317 9.5767 158.033 8.85511C157.749 8.13352 157.328 7.56818 156.772 7.15909C156.215 6.75 155.527 6.54545 154.709 6.54545C153.857 6.54545 153.147 6.76136 152.578 7.19318C152.016 7.625 151.593 8.20455 151.309 8.93182C151.03 9.65909 150.891 10.4659 150.891 11.3523C150.891 12.2614 151.033 13.0653 151.317 13.7642C151.607 14.4574 152.033 15.0028 152.596 15.4006C153.164 15.7926 153.868 15.9886 154.709 15.9886ZM169.436 18.2727C168.255 18.2727 167.218 17.9915 166.326 17.429C165.439 16.8665 164.746 16.0795 164.246 15.0682C163.752 14.0568 163.505 12.875 163.505 11.5227C163.505 10.1591 163.752 8.96875 164.246 7.9517C164.746 6.93466 165.439 6.14489 166.326 5.58239C167.218 5.01989 168.255 4.73864 169.436 4.73864C170.618 4.73864 171.652 5.01989 172.539 5.58239C173.431 6.14489 174.124 6.93466 174.618 7.9517C175.118 8.96875 175.368 10.1591 175.368 11.5227C175.368 12.875 175.118 14.0568 174.618 15.0682C174.124 16.0795 173.431 16.8665 172.539 17.429C171.652 17.9915 170.618 18.2727 169.436 18.2727ZM169.436 16.4659C170.334 16.4659 171.073 16.2358 171.652 15.7756C172.232 15.3153 172.661 14.7102 172.939 13.9602C173.218 13.2102 173.357 12.3977 173.357 11.5227C173.357 10.6477 173.218 9.83239 172.939 9.0767C172.661 8.32102 172.232 7.71023 171.652 7.24432C171.073 6.77841 170.334 6.54545 169.436 6.54545C168.539 6.54545 167.8 6.77841 167.221 7.24432C166.641 7.71023 166.212 8.32102 165.934 9.0767C165.655 9.83239 165.516 10.6477 165.516 11.5227C165.516 12.3977 165.655 13.2102 165.934 13.9602C166.212 14.7102 166.641 15.3153 167.221 15.7756C167.8 16.2358 168.539 16.4659 169.436 16.4659ZM178.439 22.9091V4.90909H180.382V6.98864H180.62C180.768 6.76136 180.973 6.47159 181.234 6.11932C181.501 5.76136 181.882 5.44318 182.376 5.16477C182.876 4.88068 183.552 4.73864 184.404 4.73864C185.507 4.73864 186.478 5.0142 187.319 5.56534C188.16 6.11648 188.816 6.89773 189.288 7.90909C189.76 8.92045 189.995 10.1136 189.995 11.4886C189.995 12.875 189.76 14.0767 189.288 15.0938C188.816 16.1051 188.163 16.8892 187.328 17.446C186.493 17.9972 185.529 18.2727 184.439 18.2727C183.598 18.2727 182.924 18.1335 182.419 17.8551C181.913 17.571 181.524 17.25 181.251 16.892C180.978 16.5284 180.768 16.2273 180.62 15.9886H180.45V22.9091H178.439ZM180.416 11.4545C180.416 12.4432 180.561 13.3153 180.85 14.071C181.14 14.821 181.564 15.4091 182.12 15.8352C182.677 16.2557 183.359 16.4659 184.166 16.4659C185.007 16.4659 185.708 16.2443 186.271 15.8011C186.839 15.3523 187.265 14.75 187.549 13.9943C187.839 13.233 187.984 12.3864 187.984 11.4545C187.984 10.5341 187.842 9.70455 187.558 8.96591C187.279 8.22159 186.856 7.63352 186.288 7.2017C185.725 6.7642 185.018 6.54545 184.166 6.54545C183.348 6.54545 182.66 6.75284 182.103 7.16761C181.547 7.5767 181.126 8.15057 180.842 8.8892C180.558 9.62216 180.416 10.4773 180.416 11.4545ZM198.552 18.2727C197.291 18.2727 196.203 17.9943 195.288 17.4375C194.379 16.875 193.677 16.0909 193.183 15.0852C192.694 14.0739 192.45 12.8977 192.45 11.5568C192.45 10.2159 192.694 9.03409 193.183 8.01136C193.677 6.98295 194.365 6.18182 195.245 5.60795C196.132 5.02841 197.166 4.73864 198.348 4.73864C199.029 4.73864 199.703 4.85227 200.368 5.07954C201.032 5.30682 201.637 5.67614 202.183 6.1875C202.728 6.69318 203.163 7.36364 203.487 8.19886C203.811 9.03409 203.973 10.0625 203.973 11.2841V12.1364H193.882V10.3977H201.927C201.927 9.65909 201.779 9 201.484 8.42045C201.194 7.84091 200.779 7.38352 200.24 7.0483C199.706 6.71307 199.075 6.54545 198.348 6.54545C197.547 6.54545 196.853 6.74432 196.268 7.14205C195.689 7.53409 195.243 8.04545 194.93 8.67614C194.618 9.30682 194.461 9.98295 194.461 10.7045V11.8636C194.461 12.8523 194.632 13.6903 194.973 14.3778C195.319 15.0597 195.799 15.5795 196.413 15.9375C197.027 16.2898 197.74 16.4659 198.552 16.4659C199.081 16.4659 199.558 16.392 199.984 16.2443C200.416 16.0909 200.788 15.8636 201.1 15.5625C201.413 15.2557 201.654 14.875 201.825 14.4205L203.768 14.9659C203.564 15.625 203.22 16.2045 202.737 16.7045C202.254 17.1989 201.657 17.5852 200.947 17.8636C200.237 18.1364 199.439 18.2727 198.552 18.2727ZM208.498 18.1364C208.078 18.1364 207.717 17.9858 207.416 17.6847C207.115 17.3835 206.964 17.0227 206.964 16.6023C206.964 16.1818 207.115 15.821 207.416 15.5199C207.717 15.2187 208.078 15.0682 208.498 15.0682C208.919 15.0682 209.279 15.2187 209.581 15.5199C209.882 15.821 210.032 16.1818 210.032 16.6023C210.032 16.8807 209.961 17.1364 209.819 17.3693C209.683 17.6023 209.498 17.7898 209.265 17.9318C209.038 18.0682 208.782 18.1364 208.498 18.1364Z" fill="white"/>
</svg>
